HIERARCHY
ROOT root
{
  OFFSET 0 95.9893 0
  CHANNELS 6 Xposition Yposition Zposition Zrotation Xrotation Yrotation
  JOINT torso_1
  {
    OFFSET 0 5.22546 -1.18466
    CHANNELS 6 Xposition Yposition Zposition Zrotation Xrotation Yrotation
    JOINT torso_2
    {
      OFFSET 0 5.77894 1.10239
      CHANNELS 6 Xposition Yposition Zposition Zrotation Xrotation Yrotation
      JOINT torso_3
      {
        OFFSET -1.0557e-17 6.16289 0.118334
        CHANNELS 6 Xposition Yposition Zposition Zrotation Xrotation Yrotation
        JOINT torso_4
        {
          OFFSET -1.13649e-17 6.69386 -0.456341
          CHANNELS 6 Xposition Yposition Zposition Zrotation Xrotation Yrotation
          JOINT torso_5
          {
            OFFSET -2.02997e-17 7.82529 -1.54945
            CHANNELS 6 Xposition Yposition Zposition Zrotation Xrotation Yrotation
            JOINT torso_6
            {
              OFFSET -2.60628e-17 9.77186 -0.940923
              CHANNELS 6 Xposition Yposition Zposition Zrotation Xrotation Yrotation
              JOINT torso_7
              {
                OFFSET -2.98794e-17 10.8563 1.62248
                CHANNELS 6 Xposition Yposition Zposition Zrotation Xrotation Yrotation
                JOINT neck_1
                {
                  OFFSET -1.32927e-17 4.92478 0.736013
                  CHANNELS 6 Xposition Yposition Zposition Zrotation Xrotation Yrotation
                  JOINT neck_2
                  {
                    OFFSET -1.86396e-17 4.96043 0.433981
                    CHANNELS 6 Xposition Yposition Zposition Zrotation Xrotation Yrotation
                    JOINT head
                    {
                      OFFSET -2.06766e-17 4.97002 0.787173
                      CHANNELS 6 Xposition Yposition Zposition Zrotation Xrotation Yrotation
                      End Site
                      {
                        OFFSET 0 0.1 0
                      }
                    }
                  }
                }
                JOINT l_shoulder
                {
                  OFFSET 1.26863 -7.82717 7.75148
                  CHANNELS 6 Xposition Yposition Zposition Zrotation Xrotation Yrotation
                  JOINT l_up_arm
                  {
                    OFFSET 13.3291 3.34342 -3.36319
                    CHANNELS 6 Xposition Yposition Zposition Zrotation Xrotation Yrotation
                    JOINT l_low_arm
                    {
                      OFFSET 30.0522 0.0615366 0.141
                      CHANNELS 6 Xposition Yposition Zposition Zrotation Xrotation Yrotation
                      JOINT l_hand
                      {
                        OFFSET 24.9344 0.0510561 0.116988
                        CHANNELS 6 Xposition Yposition Zposition Zrotation Xrotation Yrotation
                        End Site
                        {
                          OFFSET 0.1 0 0
                        }
                      }
                    }
                  }
                }
                JOINT r_shoulder
                {
                  OFFSET -1.26863 -7.82715 7.75138
                  CHANNELS 6 Xposition Yposition Zposition Zrotation Xrotation Yrotation
                  JOINT r_up_arm
                  {
                    OFFSET -13.3291 3.34342 -3.36319
                    CHANNELS 6 Xposition Yposition Zposition Zrotation Xrotation Yrotation
                    JOINT r_low_arm
                    {
                      OFFSET -30.0522 0.0615366 0.141
                      CHANNELS 6 Xposition Yposition Zposition Zrotation Xrotation Yrotation
                      JOINT r_hand
                      {
                        OFFSET -24.9344 0.0510559 0.116988
                        CHANNELS 6 Xposition Yposition Zposition Zrotation Xrotation Yrotation
                        End Site
                        {
                          OFFSET -0.1 0 0
                        }
                      }
                    }
                  }
                }
              }
            }
          }
        }
      }
    }
  }
  JOINT l_up_leg
  {
    OFFSET 9.50369 -4.32711 2.09145
    CHANNELS 6 Xposition Yposition Zposition Zrotation Xrotation Yrotation
    JOINT l_low_leg
    {
      OFFSET -0.876987 -39.8926 -0.674123
      CHANNELS 6 Xposition Yposition Zposition Zrotation Xrotation Yrotation
      JOINT l_foot
      {
        OFFSET -2.39345 -41.5694 -6.22357
        CHANNELS 6 Xposition Yposition Zposition Zrotation Xrotation Yrotation
        JOINT l_toes
        {
          OFFSET 0.801613 -10.1701 12.8571
          CHANNELS 6 Xposition Yposition Zposition Zrotation Xrotation Yrotation
          End Site
          {
            OFFSET 0 0 0.1
          }
        }
      }
    }
  }
  JOINT r_up_leg
  {
    OFFSET -9.50369 -4.32711 2.09145
    CHANNELS 6 Xposition Yposition Zposition Zrotation Xrotation Yrotation
    JOINT r_low_leg
    {
      OFFSET 0.876987 -39.8926 -0.674123
      CHANNELS 6 Xposition Yposition Zposition Zrotation Xrotation Yrotation
      JOINT r_foot
      {
        OFFSET 2.39345 -41.5694 -6.22357
        CHANNELS 6 Xposition Yposition Zposition Zrotation Xrotation Yrotation
        JOINT r_toes
        {
          OFFSET -0.801613 -10.1701 12.8571
          CHANNELS 6 Xposition Yposition Zposition Zrotation Xrotation Yrotation
          End Site
          {
            OFFSET 0 0 0.1
          }
        }
      }
    }
  }
}
MOTION
Frames: 7
Frame Time: 0.016667
0 95.9893 0 -0 0 -0 0 5.22546 -1.18466 -0 0 -0 0 5.77894 1.10239 -0 0 -0 -1.0557e-17 6.16289 0.118334 -0 0 -0 -1.13649e-17 6.69386 -0.456341 -0 0 -0 -2.02997e-17 7.82529 -1.54945 -0 0 -0 -2.60628e-17 9.77186 -0.940923 -0 0 -0 -2.98794e-17 10.8563 1.62248 -0 0 -0 -1.32927e-17 4.92478 0.736013 -0 0 -0 -1.86396e-17 4.96043 0.433981 -0 0 -0 -2.06766e-17 4.97002 0.787173 -0 0 -0 1.26863 -7.82717 7.75148 -0 0 -0 13.3291 3.34342 -3.36319 -0 0 -0 30.0522 0.0615366 0.141 -0 0 -0 24.9344 0.0510561 0.116988 -0 0 -0 -1.26863 -7.82715 7.75138 -0 0 -0 -13.3291 3.34342 -3.36319 -0 0 -0 -30.0522 0.0615366 0.141 -0 0 -0 -24.9344 0.0510559 0.116988 -0 0 -0 9.50369 -4.32711 2.09145 -0 0 -0 -0.876987 -39.8926 -0.674123 -0 0 -0 -2.39345 -41.5694 -6.22357 -0 0 -0 0.801613 -10.1701 12.8571 -0 0 -0 -9.50369 -4.32711 2.09145 -0 0 -0 0.876987 -39.8926 -0.674123 -0 0 -0 2.39345 -41.5694 -6.22357 -0 0 -0 -0.801613 -10.1701 12.8571 -0 0 -0 
-41.7958 94.4775 -76.4774 0.40948 11.8438 -2.34438 0 5.22546 -1.18466 -0.424846 0.658553 0.0411923 0 5.77894 1.10239 -0.207819 0.516962 -0.0514519 -1.0557e-17 6.16289 0.118334 -0.0985247 0.517567 0.0600564 -1.13649e-17 6.69386 -0.456341 0.0577346 0.348345 0.0859252 -2.02997e-17 7.82529 -1.54945 0.193963 0.212063 0.0192598 -2.60628e-17 9.77186 -0.940923 0.395427 -0.280628 -0.322175 -2.98794e-17 10.8563 1.62248 -0.0409179 0.920144 0.152609 -1.32927e-17 4.92478 0.736013 1.20304 -4.57305 4.29538 -1.86396e-17 4.96043 0.433981 1.46995 -2.53887 1.77035 -2.06766e-17 4.97002 0.787173 -1.12404 1.47628 2.80955 1.26863 -7.82717 7.75148 0.357182 4.07416 -0.806637 13.3291 3.34342 -3.36319 -82.5645 17.5011 -5.69244 30.0522 0.0615366 0.141 3.13348 -0.403637 -15.2686 24.9344 0.0510561 0.116988 -0.593975 -19.9214 -6.28666 -1.26863 -7.82715 7.75138 2.72499 6.23894 1.88927 -13.3291 3.34342 -3.36319 78.5512 15.0376 9.02267 -30.0522 0.0615366 0.141 -2.32895 -0.217995 11.2909 -24.9344 0.0510559 0.116988 -1.37405 -8.87629 4.20605 9.50369 -4.32711 2.09145 0.725306 -9.52252 -20.2447 -0.876987 -39.8926 -0.674123 -2.32256 8.64397 0.0243776 -2.39345 -41.5694 -6.22357 1.13703 -10.1902 15.9686 0.801613 -10.1701 12.8571 1.15886e-16 -6.67877e-16 -1.98141e-16 -9.50369 -4.32711 2.09145 -1.8872 -34.2975 25.6477 0.876987 -39.8926 -0.674123 14.7113 44.2924 -5.19123 2.39345 -41.5694 -6.22357 5.59191 4.22761 -15.6884 -0.801613 -10.1701 12.8571 -2.47935e-15 -3.04693e-16 -1.25022e-14 
-41.5689 94.3164 -75.1192 0.183006 12.0621 -2.69128 0 5.22546 -1.18466 -0.371235 0.695073 -0.109738 0 5.77894 1.10239 -0.144166 0.567005 -0.199761 -1.0557e-17 6.16289 0.118334 -0.0444778 0.560496 -0.0892388 -1.13649e-17 6.69386 -0.456341 0.104974 0.396586 -0.0649272 -2.02997e-17 7.82529 -1.54945 0.202952 0.258897 -0.138529 -2.60628e-17 9.77186 -0.940923 0.342085 -0.230757 -0.477174 -2.98794e-17 10.8563 1.62248 -0.050868 0.917923 0.155627 -1.32927e-17 4.92478 0.736013 1.27477 -4.27635 4.82644 -1.86396e-17 4.96043 0.433981 1.47033 -2.73333 2.00846 -2.06766e-17 4.97002 0.787173 -1.16799 0.884452 3.00903 1.26863 -7.82717 7.75148 0.597242 3.89452 -0.72534 13.3291 3.34342 -3.36319 -82.3502 17.5923 -6.43341 30.0522 0.0615366 0.141 3.20854 -0.423972 -15.6429 24.9344 0.0510561 0.116988 -0.693491 -20.871 -6.09106 -1.26863 -7.82715 7.75138 2.73996 6.06835 1.80688 -13.3291 3.34342 -3.36319 78.9767 14.8197 8.63189 -30.0522 0.0615366 0.141 -2.43613 -0.23933 11.8173 -24.9344 0.0510559 0.116988 -1.2646 -9.52331 4.63389 9.50369 -4.32711 2.09145 0.927247 -8.49438 -19.7944 -0.876987 -39.8926 -0.674123 -2.18359 8.13162 0.0130496 -2.39345 -41.5694 -6.22357 1.2011 -10.7558 15.9948 0.801613 -10.1701 12.8571 1.15886e-16 -6.67877e-16 -1.98141e-16 -9.50369 -4.32711 2.09145 -0.286022 -36.8674 26.0081 0.876987 -39.8926 -0.674123 16.4543 47.4884 -6.38559 2.39345 -41.5694 -6.22357 4.57091 3.76714 -15.5476 -0.801613 -10.1701 12.8571 -7.95217e-16 -3.77455e-16 -1.25734e-14 
-41.4409 94.1828 -73.6449 -0.303355 12.0731 -2.85553 0 5.22546 -1.18466 -0.261772 0.726187 -0.275362 0 5.77894 1.10239 -0.0305028 0.620951 -0.358365 -1.0557e-17 6.16289 0.118334 0.0469883 0.615078 -0.249139 -1.13649e-17 6.69386 -0.456341 0.176266 0.464098 -0.226996 -2.02997e-17 7.82529 -1.54945 0.221043 0.331906 -0.310171 -2.60628e-17 9.77186 -0.940923 0.280993 -0.14884 -0.642078 -2.98794e-17 10.8563 1.62248 -0.0605859 0.909907 0.157257 -1.32927e-17 4.92478 0.736013 1.34949 -4.34139 5.25121 -1.86396e-17 4.96043 0.433981 1.44602 -2.84485 2.20023 -2.06766e-17 4.97002 0.787173 -1.04941 0.792631 3.26495 1.26863 -7.82717 7.75148 0.617133 3.76581 -0.723794 13.3291 3.34342 -3.36319 -81.9602 17.625 -7.27364 30.0522 0.0615366 0.141 3.23517 -0.431313 -15.7759 24.9344 0.0510561 0.116988 -0.624683 -21.8617 -5.69667 -1.26863 -7.82715 7.75138 2.91014 5.91588 1.74588 -13.3291 3.34342 -3.36319 79.2949 14.3936 8.08401 -30.0522 0.0615366 0.141 -2.58993 -0.271742 12.5743 -24.9344 0.0510559 0.116988 -0.87859 -10.5974 4.96271 9.50369 -4.32711 2.09145 1.4068 -7.20593 -19.3754 -0.876987 -39.8926 -0.674123 -2.04752 7.62898 0.00316848 -2.39345 -41.5694 -6.22357 1.2005 -11.1891 16.007 0.801613 -10.1701 12.8571 1.15886e-16 -6.67877e-16 -1.98141e-16 -9.50369 -4.32711 2.09145 1.9561 -38.7672 26.9988 0.876987 -39.8926 -0.674123 17.3925 49.0558 -7.05741 2.39345 -41.5694 -6.22357 3.14298 2.99348 -15.4228 -0.801613 -10.1701 12.8571 -3.03793e-16 -3.98687e-16 -1.25887e-14 
-41.4269 94.0368 -72.1111 -0.888947 11.6615 -2.86844 0 5.22546 -1.18466 -0.142488 0.814017 -0.439478 0 5.77894 1.10239 0.0900131 0.734552 -0.51099 -1.0557e-17 6.16289 0.118334 0.144333 0.745596 -0.402071 -1.13649e-17 6.69386 -0.456341 0.251452 0.630678 -0.37985 -2.02997e-17 7.82529 -1.54945 0.243337 0.49082 -0.472996 -2.60628e-17 9.77186 -0.940923 0.225296 0.0395933 -0.796714 -2.98794e-17 10.8563 1.62248 -0.069665 0.89482 0.157017 -1.32927e-17 4.92478 0.736013 1.39985 -4.31365 5.58558 -1.86396e-17 4.96043 0.433981 1.41392 -3.03928 2.35607 -2.06766e-17 4.97002 0.787173 -0.881808 0.641488 3.45073 1.26863 -7.82717 7.75148 0.598743 3.60547 -0.734385 13.3291 3.34342 -3.36319 -81.3829 17.7635 -8.401 30.0522 0.0615366 0.141 3.18979 -0.418842 -15.5494 24.9344 0.0510561 0.116988 -0.572059 -22.9084 -5.27802 -1.26863 -7.82715 7.75138 3.17837 5.71931 1.72685 -13.3291 3.34342 -3.36319 79.4279 13.9597 7.68664 -30.0522 0.0615366 0.141 -2.72589 -0.302168 13.2453 -24.9344 0.0510559 0.116988 -0.375206 -11.9789 5.21669 9.50369 -4.32711 2.09145 1.99513 -5.53758 -19.0604 -0.876987 -39.8926 -0.674123 -1.95136 7.27317 -0.00309152 -2.39345 -41.5694 -6.22357 1.05914 -11.5648 16.0302 0.801613 -10.1701 12.8571 1.15886e-16 -6.67877e-16 -1.98141e-16 -9.50369 -4.32711 2.09145 4.08203 -39.9499 27.6273 0.876987 -39.8926 -0.674123 17.5248 49.2688 -7.15367 2.39345 -41.5694 -6.22357 1.60582 1.84811 -15.3033 -0.801613 -10.1701 12.8571 -6.00124e-16 -3.85884e-16 -1.25795e-14 
-41.4977 93.83 -70.5498 -1.3449 11.0801 -2.91625 0 5.22546 -1.18466 -0.0573353 0.963727 -0.585421 0 5.77894 1.10239 0.175101 0.89675 -0.645578 -1.0557e-17 6.16289 0.118334 0.212691 0.925772 -0.534568 -1.13649e-17 6.69386 -0.456341 0.303627 0.842509 -0.510299 -2.02997e-17 7.82529 -1.54945 0.254466 0.674471 -0.610456 -2.60628e-17 9.77186 -0.940923 0.174789 0.257662 -0.925903 -2.98794e-17 10.8563 1.62248 -0.0762811 0.877802 0.154071 -1.32927e-17 4.92478 0.736013 1.42609 -4.10816 5.85381 -1.86396e-17 4.96043 0.433981 1.39929 -3.30768 2.48447 -2.06766e-17 4.97002 0.787173 -0.788656 0.239313 3.61364 1.26863 -7.82717 7.75148 0.657203 3.44795 -0.763699 13.3291 3.34342 -3.36319 -80.7054 18.1818 -9.71303 30.0522 0.0615366 0.141 3.09472 -0.393341 -15.0755 24.9344 0.0510561 0.116988 -0.574674 -24.2106 -4.97979 -1.26863 -7.82715 7.75138 3.41823 5.5144 1.72678 -13.3291 3.34342 -3.36319 79.4718 13.7742 7.44679 -30.0522 0.0615366 0.141 -2.82359 -0.325067 13.7285 -24.9344 0.0510559 0.116988 0.0541095 -13.4109 5.5139 9.50369 -4.32711 2.09145 2.47484 -3.7523 -18.8121 -0.876987 -39.8926 -0.674123 -1.89745 7.07351 -0.00633856 -2.39345 -41.5694 -6.22357 0.907955 -11.9535 16.0593 0.801613 -10.1701 12.8571 1.15886e-16 -6.67877e-16 -1.98141e-16 -9.50369 -4.32711 2.09145 5.73696 -40.8152 27.7717 0.876987 -39.8926 -0.674123 17.0251 48.4541 -6.79212 2.39345 -41.5694 -6.22357 0.163193 0.346602 -15.2142 -0.801613 -10.1701 12.8571 -6.00124e-16 -3.85884e-16 -1.25795e-14 
-41.6094 93.5428 -68.9378 -1.67135 10.3227 -3.02146 0 5.22546 -1.18466 -0.0265662 1.24652 -0.707291 0 5.77894 1.10239 0.208289 1.14327 -0.761562 -1.0557e-17 6.16289 0.118334 0.238705 1.14814 -0.646127 -1.13649e-17 6.69386 -0.456341 0.322108 1.01515 -0.618976 -2.02997e-17 7.82529 -1.54945 0.246595 0.773231 -0.721552 -2.60628e-17 9.77186 -0.940923 0.125348 0.366524 -1.02749 -2.98794e-17 10.8563 1.62248 -0.0809211 0.872508 0.150483 -1.32927e-17 4.92478 0.736013 1.42805 -3.85084 6.02512 -1.86396e-17 4.96043 0.433981 1.39114 -3.54932 2.56871 -2.06766e-17 4.97002 0.787173 -0.63739 -0.193875 3.81415 1.26863 -7.82717 7.75148 0.780886 3.38509 -0.854008 13.3291 3.34342 -3.36319 -79.9691 18.7965 -11.004 30.0522 0.0615366 0.141 2.9754 -0.362522 -14.4822 24.9344 0.0510561 0.116988 -0.559716 -25.625 -4.72805 -1.26863 -7.82715 7.75138 3.59119 5.3925 1.76126 -13.3291 3.34342 -3.36319 79.5032 13.8218 7.15511 -30.0522 0.0615366 0.141 -2.89779 -0.343041 14.0961 -24.9344 0.0510559 0.116988 0.539632 -15.0181 5.91074 9.50369 -4.32711 2.09145 2.82832 -1.73406 -18.6018 -0.876987 -39.8926 -0.674123 -1.84453 6.87738 -0.00934238 -2.39345 -41.5694 -6.22357 0.780985 -12.3862 16.0859 0.801613 -10.1701 12.8571 1.46481e-17 -6.72251e-16 -1.91814e-16 -9.50369 -4.32711 2.09145 6.93515 -41.3588 27.6044 0.876987 -39.8926 -0.674123 16.0656 46.8086 -6.11292 2.39345 -41.5694 -6.22357 -1.01839 -1.3865 -15.1738 -0.801613 -10.1701 12.8571 -7.01362e-16 -3.8151e-16 -1.25763e-14 
